<svg width="1400" height="760" viewBox="0 0 1400 760" fill="none" xmlns="http://www.w3.org/2000/svg">
  <rect width="1400" height="760" fill="#0B0B0C"/>
  <g opacity="0.12" stroke="#C9982A" stroke-width="1">
    <path d="M0 190H1400"/>
    <path d="M0 380H1400"/>
    <path d="M0 570H1400"/>
    <path d="M280 0V760"/>
    <path d="M560 0V760"/>
    <path d="M840 0V760"/>
    <path d="M1120 0V760"/>
  </g>
  <g opacity="0.06">
    <ellipse cx="720" cy="320" rx="290" ry="180" fill="#C9982A"/>
    <ellipse cx="768" cy="354" rx="190" ry="112" fill="#5C0A12"/>
  </g>
  <g fill="#EDE1D3" opacity="0.16" stroke="#C9982A" stroke-opacity="0.28" stroke-width="2.4">
    <path d="M96 254C132 206 214 186 300 188C402 191 514 236 568 302C602 344 596 410 538 432C486 452 420 444 368 454C316 464 282 496 230 490C162 482 84 428 74 364C68 324 76 282 96 254Z"/>
    <path d="M374 156C402 132 452 116 500 120C538 124 568 144 574 174C580 210 552 236 512 246C460 258 398 248 372 220C350 198 348 178 374 156Z"/>
    <path d="M604 168C646 132 718 118 792 122C864 126 950 158 1026 216C1082 258 1114 320 1106 376C1098 438 1040 466 966 466C900 466 850 446 802 426C758 408 726 398 694 410C642 430 610 500 588 560C572 604 546 650 492 662C446 674 398 654 386 604C378 568 396 520 434 470C468 426 492 384 486 336C480 286 436 260 454 214C472 170 532 156 604 168Z"/>
    <path d="M1156 250C1192 228 1238 220 1280 224C1322 228 1364 248 1382 282C1392 302 1388 326 1374 338C1344 362 1296 356 1260 362C1224 370 1190 396 1156 388C1126 380 1104 356 1102 326C1100 296 1124 270 1156 250Z"/>
    <path d="M1136 486C1164 466 1210 456 1254 460C1304 464 1354 486 1378 518C1394 540 1388 566 1368 580C1338 600 1292 594 1254 602C1218 610 1182 634 1142 620C1114 610 1094 586 1096 556C1098 528 1114 504 1136 486Z"/>
  </g>
  <g opacity="0.1">
    <path d="M446 452C510 430 548 424 584 430C624 436 654 454 694 454C742 454 760 424 792 420C824 416 864 430 910 424C968 416 1014 386 1060 374" stroke="#EDE1D3" stroke-width="2" stroke-linecap="round" stroke-dasharray="2 16"/>
  </g>
</svg>
