<svg width="1000" height="520" viewBox="0 0 1000 520" fill="none" xmlns="http://www.w3.org/2000/svg">
  <rect width="1000" height="520" rx="32" fill="#0B0B0C"/>
  <g opacity="0.1" stroke="#C9982A" stroke-width="1">
    <path d="M0 130H1000"/>
    <path d="M0 260H1000"/>
    <path d="M0 390H1000"/>
    <path d="M200 0V520"/>
    <path d="M400 0V520"/>
    <path d="M600 0V520"/>
    <path d="M800 0V520"/>
  </g>
  <g fill="#EDE1D3" opacity="0.12" stroke="#C9982A" stroke-opacity="0.25" stroke-width="2">
    <path d="M90 180C110 150 170 145 215 150C260 155 300 175 317 203C327 219 323 243 303 252C273 266 236 261 212 267C186 274 161 291 136 283C106 273 74 245 77 219C79 205 82 194 90 180Z"/>
    <path d="M292 125C307 111 335 105 359 109C377 112 388 122 390 136C392 152 382 164 364 170C344 176 320 177 304 167C288 157 282 138 292 125Z"/>
    <path d="M438 137C455 120 488 111 521 113C556 116 602 128 633 149C659 166 678 193 673 217C668 240 642 252 611 254C585 256 561 248 541 241C523 235 504 233 490 239C462 251 437 290 423 335C414 364 401 397 375 405C352 412 334 397 329 373C325 351 336 325 350 300C363 278 377 254 375 229C373 207 350 189 356 166C362 143 393 136 438 137Z"/>
    <path d="M704 175C727 159 759 153 788 157C815 160 851 172 866 194C878 212 870 235 848 242C823 250 791 243 770 248C745 253 726 271 702 264C682 258 666 239 667 220C668 201 686 186 704 175Z"/>
    <path d="M808 312C820 298 843 290 869 292C894 294 923 304 938 322C950 336 947 354 929 361C908 370 881 366 862 369C842 372 824 382 804 375C787 369 776 352 779 337C781 328 793 319 808 312Z"/>
  </g>
  <g opacity="0.08">
    <circle cx="508" cy="210" r="120" fill="#C9982A"/>
    <circle cx="560" cy="235" r="84" fill="#5C0A12"/>
  </g>
</svg>
